<svg width="130" height="50" xmlns="http://www.w3.org/2000/svg">
 <!-- Created with Method Draw - http://github.com/duopixel/Method-Draw/ -->

 <g>
  <title>background</title>
  <rect fill="none" id="canvas_background" height="52" width="132" y="-1" x="-1"/>
  <g display="none" overflow="visible" y="0" x="0" height="100%" width="100%" id="canvasGrid">
   <rect fill="url(#gridpattern)" stroke-width="0" y="1" x="1" height="400" width="580"/>
  </g>
 </g>
 <g>
  <title>Layer 1</title>
  <!-- Created with Method Draw - http://github.com/duopixel/Method-Draw/ -->
  <g stroke="null" opacity="0.99" id="svg_38">
   <g stroke="null" transform="matrix(0.0012555477788063988,0,0,0.0016634464212340913,233.59800316050521,150.72290271293633) " id="svg_36">
    <title stroke="null" transform="translate(796.465087890625,601.1615600585938) translate(40992.796875,0) translate(0,28268.046875) ">background</title>
   </g>
   <g stroke="null" transform="matrix(0.0012555477788063988,0,0,0.0016634464212340913,233.59800316050521,150.72290271293633) " id="svg_37">
    <title stroke="null" transform="translate(796.465087890625,601.1615600585938) translate(40992.796875,0) translate(0,28268.046875) ">Layer 1</title>
    <g stroke="null" id="svg_19">
     <path stroke="null" d="m42286.514013,29596.286535l35.94912,35.86743c-16.85035,10.7966 -35.34023,18.7891 -54.75057,23.66495c-6.02904,1.42961 -10.73487,6.13923 -12.16067,12.16922l-8.09793,36.30914c-0.83877,3.71792 -4.13209,6.36625 -7.9431,6.38715l-36.03176,0c-3.82051,-0.0095 -7.12713,-2.65973 -7.96684,-6.38715l-8.05044,-36.19515c-1.24817,-5.9065 -5.71747,-10.60662 -11.55368,-12.15212c-18.13272,-4.51774 -35.48937,-11.71231 -51.5,-21.34814c-5.15513,-3.0131 -11.57078,-2.85731 -16.57392,0.40181l-31.28148,19.99643c-3.2407,2.07079 -7.48563,1.60723 -10.2033,-1.11329l-25.49998,-25.50017c-2.74884,-2.71483 -3.22664,-6.98085 -1.14644,-10.23617l19.95615,-31.31359c3.25903,-5.00409 3.41433,-11.41879 0.40124,-16.57487c-9.63535,-16.00968 -16.8305,-33.36728 -21.34824,-51.49905c-1.54891,-5.81246 -6.22862,-10.26466 -12.11128,-11.52138l-36.211,-8.08274c-3.72076,-0.82546 -6.3692,-4.12353 -6.37091,-7.93454l0,-36.03176c0.00085,-3.80817 2.64522,-7.10623 6.36272,-7.93455l36.21919,-8.08273c5.90698,-1.24818 10.6072,-5.71748 12.15222,-11.55369c4.51774,-18.13271 11.71289,-35.48936 21.34824,-51.49999c3.0131,-5.15513 2.85779,-11.57078 -0.40124,-16.57393l-19.99709,-31.36336c-2.04619,-3.21381 -1.58672,-7.41742 1.10549,-10.11324l25.5491,-25.5491c2.69583,-2.69222 6.89944,-3.15168 10.11325,-1.1055l31.36336,19.98893c5.00314,3.25903 11.41879,3.41433 16.57392,0.40124c16.01063,-9.63545 33.36728,-16.83059 51.5,-21.34824c5.83431,-1.54369 10.30266,-6.2402 11.55368,-12.14405l8.07418,-36.19463c0.83877,-3.71826 4.13209,-6.36631 7.9431,-6.38729l36.03176,0c3.80816,0.00086 7.10623,2.64523 7.93455,6.36273l8.08273,36.21919c1.24818,5.90698 5.71747,10.6072 11.55368,12.15222c18.13272,4.51774 35.48937,11.71289 51.5,21.34824c5.15513,3.01309 11.57078,2.85778 16.57392,-0.40124l31.28129,-19.9971c3.24108,-2.07069 7.4862,-1.60742 10.20387,1.11367l25.46693,25.46721c2.77657,2.71112 3.26862,6.9989 1.17883,10.26884l-19.98883,31.28148c-3.25912,5.00315 -3.41396,11.4188 -0.40086,16.57393c9.63488,16.01063 16.8304,33.36728 21.34814,51.49999c1.5436,5.83431 6.23992,10.30266 12.14358,11.55369l36.18659,8.07418c3.72172,0.83592 6.37386,4.12923 6.3957,7.9431l0,36.03176c-0.00095,3.80816 -2.64548,7.10623 -6.36245,7.93454l-36.34238,8.10648c-6.03474,1.41916 -10.74531,6.13353 -12.16067,12.16922c-4.9205,19.44359 -12.93864,37.96957 -23.7476,54.86456l-35.86648,-35.86648" fill="#326DCD" id="svg_34"/>
     <path stroke="null" d="m42344.490453,29538.472525c32.31954,-60.83755 15.28111,-136.16494 -40.0755,-177.17134c-55.35565,-41.00641 -132.37957,-35.35761 -181.16094,13.2863c-48.78109,48.64269 -54.64769,125.65046 -13.79831,181.122c40.84967,55.4725 116.12862,72.7237 177.05736,40.5761" fill="#003399" id="svg_33"/>
     <path stroke="null" d="m42074.092873,29473.208425c0.00541,-61.322 37.97602,-116.235 95.34737,-137.88997c57.37135,-21.65467 122.15671,-5.5272 162.67961,40.49726c40.52386,46.02475 48.31877,112.32995 19.57467,166.49823c-2.16673,3.90125 -7.05873,5.34891 -11.00083,3.25532c-3.94116,-2.09264 -5.48,-6.9571 -3.46145,-10.9372c30.41782,-57.25736 14.38344,-128.1506 -37.71214,-166.74615c-52.09654,-38.59517 -124.58751,-33.28368 -170.50112,12.49314c-45.91456,45.77683 -51.44395,118.2507 -13.00514,170.46218c38.43787,52.21242 109.28361,68.45958 166.63216,38.21463c2.58944,-1.4391 5.75357,-1.36596 8.27462,0.18903c2.52104,1.555 4.00574,4.35056 3.8832,7.30952c-0.12348,2.9599 -1.83521,5.62248 -4.47689,6.96279c-45.69419,24.01452 -100.61574,22.40824 -144.82807,-4.23562c-44.21328,-26.64481 -71.29124,-74.45348 -71.40599,-126.07316z" fill="#0047AB" id="svg_32"/>
     <path stroke="null" d="m42430.225943,29624.208965l-123.07811,-123.07811c10.03763,-30.94408 2.60938,-64.89554 -19.43124,-88.82268c-22.04157,-23.92618 -55.27112,-34.10915 -86.93332,-26.64005c-1.4847,0.29351 -2.68727,1.38116 -3.12708,2.83071c-0.43886,1.4486 -0.0418,3.02164 1.03065,4.08934l49.01029,48.97705c0.9917,0.9898 1.40871,2.41655 1.10569,3.78346l-9.4335,42.74568c-0.34576,1.55595 -1.56259,2.76992 -3.12043,3.11189l-42.67159,9.3594c-1.36026,0.29922 -2.77942,-0.11398 -3.76732,-1.09713l-49.05019,-48.97705c-1.06959,-1.0734 -2.64358,-1.46856 -4.09314,-1.0278c-1.4486,0.44075 -2.53624,1.64523 -2.82691,3.13183c-7.48239,31.63751 2.67683,64.8509 26.57641,86.88962c23.90054,22.03873 57.82731,29.47647 88.75523,19.45879c92.77143,92.77997 12.62708,12.52923 123.2415,123.1598c16.16357,14.8565 41.16694,14.32075 56.67887,-1.21398c15.51288,-15.53378 16.01348,-40.5381 1.13419,-56.68077zm-28.57881,45.52985c-9.04499,0 -16.3773,-7.33231 -16.3773,-16.3773c0,-9.04498 7.33231,-16.37824 16.3773,-16.37824c9.04498,0 16.37729,7.33326 16.37729,16.37824c-0.0266,9.03359 -7.34371,16.3507 -16.37729,16.3773z" fill="white" id="svg_31"/>
     <path stroke="null" d="m42229.679353,29301.242555l-16.37729,0c-4.52249,0 -8.18912,-3.66625 -8.18912,-8.18884c0,-4.52259 3.66663,-8.18884 8.18912,-8.18884l16.37729,0c4.5225,0 8.18913,3.66625 8.18913,8.18884c0,4.52259 -3.66663,8.18884 -8.18913,8.18884z" fill="#326DCD" id="svg_30"/>
     <path stroke="null" d="m42229.679353,29661.552545l-16.37729,0c-4.52249,0 -8.18912,-3.66663 -8.18912,-8.18913c0,-4.52249 3.66663,-8.18912 8.18912,-8.18912l16.37729,0c4.5225,0 8.18913,3.66663 8.18913,8.18912c0,4.5225 -3.66663,8.18913 -8.18913,8.18913z" fill="#326DCD" id="svg_29"/>
     <path stroke="null" d="m42088.309893,29359.802235c-3.31137,-0.00095 -6.29691,-1.99575 -7.56409,-5.05539c-1.26717,-3.05964 -0.56709,-6.58094 1.77443,-8.92245l11.58692,-11.58788c3.21353,-3.10333 8.32116,-3.05869 11.47959,0.09974c3.15844,3.15938 3.20308,8.26607 0.09974,11.47959c-12.59477,12.59478 -13.06118,13.98639 -17.37659,13.98639z" fill="#326DCD" id="svg_28"/>
     <path stroke="null" d="m42041.344933,29489.586665c-4.52259,0 -8.18884,-3.66663 -8.18884,-8.18912l0,-16.37824c0,-4.5225 3.66625,-8.18818 8.18884,-8.18818c4.52258,0 8.18883,3.66568 8.18883,8.18818l0,16.37824c0,4.5225 -3.66625,8.18912 -8.18883,8.18912z" fill="#326DCD" id="svg_27"/>
     <path stroke="null" d="m42401.649973,29489.586665c-4.52249,0 -8.18912,-3.66663 -8.18912,-8.18912l0,-16.37824c0,-4.5225 3.66663,-8.18818 8.18912,-8.18818c4.5225,0 8.18913,3.66568 8.18913,8.18818l0,16.37824c0,4.5225 -3.66663,8.18912 -8.18913,8.18912z" fill="#326DCD" id="svg_26"/>
     <path stroke="null" d="m42099.899673,29614.578835c-2.17148,-0.00095 -4.25367,-0.86346 -5.78872,-2.39945l-11.58788,-11.58693c-3.10333,-3.21353 -3.05869,-8.32116 0.09974,-11.47959c3.15939,-3.15844 8.26607,-3.20308 11.47959,-0.09974l11.58693,11.58693c2.34152,2.34246 3.0416,5.86375 1.77442,8.92339c-1.26717,3.05964 -4.25177,5.05444 -7.56408,5.05539z" fill="#326DCD" id="svg_25"/>
     <path stroke="null" d="m42354.676273,29359.802235c-2.17148,0 -4.25367,-0.86346 -5.78966,-2.39946l-11.58693,-11.58693c-3.10334,-3.21352 -3.05869,-8.32021 0.09974,-11.47959c3.15843,-3.15843 8.26606,-3.20307 11.47959,-0.09974l11.58693,11.58788c2.34151,2.34151 3.04159,5.86281 1.77442,8.92245c-1.26717,3.05964 -4.25272,5.05444 -7.56409,5.05539z" fill="#326DCD" id="svg_24"/>
     <path stroke="null" d="m42368.890643,29628.797005c-2.17243,0 -4.25462,-0.86347 -5.78967,-2.39946l-90.0775,-90.07655c-3.10333,-3.21352 -3.05869,-8.32116 0.09974,-11.47959c3.15844,-3.15843 8.26607,-3.20308 11.47959,-0.09974l90.07655,90.0775c2.34151,2.34151 3.04159,5.86281 1.77442,8.92245c-1.26717,3.05964 -4.25177,5.05444 -7.56313,5.05539z" fill="#CDCDCD" id="svg_23"/>
     <path stroke="null" d="m42558.188463,29367.294125z" fill="white" id="svg_22"/>
     <text stroke="null" fill="#ffffff" stroke-width="0" stroke-opacity="null" fill-opacity="null" x="7888.139001" y="5113.708674" id="svg_21" font-size="24" font-family="Helvetica, Arial, sans-serif" text-anchor="start" xml:space="preserve" transform="matrix(5.832931041717528,0,0,6.223975339513856,-3497.1087837953232,-2365.899554198345) ">ITS SERVIS</text>
     <text stroke="null" fill="#ffffff" stroke-width="0" stroke-opacity="null" fill-opacity="null" x="17788.726538" y="7840.030479" id="svg_20" font-size="24" font-family="Helvetica, Arial, sans-serif" text-anchor="start" xml:space="preserve" transform="matrix(2.4527907630918833,0,0,4.057652849336193,-1114.9823759870549,-2237.54970667174) ">POPRAVKA I SERVISIRANJE</text>
    </g>
   </g>
  </g>
 </g>
</svg>